<mxfile host="app.diagrams.net" agent="Mozilla/5.0 (Windows NT 10.0; Win64; x64; rv:141.0) Gecko/20100101 Firefox/141.0" version="28.0.7">
  <diagram name="Page-1" id="tPkPWGG-U6Ss-aKJgxXJ">
    <mxGraphModel dx="1202" dy="638" grid="1" gridSize="10" guides="1" tooltips="1" connect="1" arrows="1" fold="1" page="1" pageScale="1" pageWidth="1169" pageHeight="827" math="0" shadow="0">
      <root>
        <mxCell id="0" />
        <mxCell id="1" parent="0" />
        <mxCell id="O47nZSD6FbdY0XNT7R6X-3" style="edgeStyle=orthogonalEdgeStyle;rounded=0;orthogonalLoop=1;jettySize=auto;html=1;" edge="1" parent="1" source="O47nZSD6FbdY0XNT7R6X-1" target="O47nZSD6FbdY0XNT7R6X-2">
          <mxGeometry relative="1" as="geometry" />
        </mxCell>
        <mxCell id="O47nZSD6FbdY0XNT7R6X-1" value="" style="image;aspect=fixed;html=1;points=[];align=center;fontSize=12;image=img/lib/azure2/networking/Spot_VM.svg;" vertex="1" parent="1">
          <mxGeometry x="330" y="260" width="68" height="62.8" as="geometry" />
        </mxCell>
        <mxCell id="O47nZSD6FbdY0XNT7R6X-2" value="" style="image;sketch=0;aspect=fixed;html=1;points=[];align=center;fontSize=12;image=img/lib/mscae/VM_Linux_Non_Azure.svg;" vertex="1" parent="1">
          <mxGeometry x="750" y="230" width="50" height="46" as="geometry" />
        </mxCell>
      </root>
    </mxGraphModel>
  </diagram>
</mxfile>
